# xmcd
#
# Track frame offsets: 
#        150
#        13961
#        31139
#        42261
#        55947
#        74694
#        84995
#        100698
#        118677
#        136291
#        146129
#        157610
#
# Disc length: 2269 seconds
#
# Revision: 2
# Processed by: cddbd v1.5.2PL0 Copyright (c) Steve Scherf et al.
# Submitted via: ExactAudioCopy v0.99pb3
#
DISCID=9d08db0c
DTITLE=The Sunny Cowgirls - Little Bit Rusty
DYEAR=2005
DGENRE=Country
TTITLE0=Rousy's Life
TTITLE1=Little Bit Rusty
TTITLE2=Flowers On The Wall
TTITLE3=Holding On
TTITLE4=Thats What It's Like
TTITLE5=Sold
TTITLE6=Advance My Spark
TTITLE7=Country Loving Cowgirls
TTITLE8=Take These Wings
TTITLE9=Folsom Prison Blues
TTITLE10=Country Flirting
TTITLE11=I've Been Everywhere
EXTD=
EXTT0=
EXTT1=
EXTT2=
EXTT3=
EXTT4=
EXTT5=
EXTT6=
EXTT7=
EXTT8=
EXTT9=
EXTT10=
EXTT11=
PLAYORDER=
